<svg width="28" height="29" viewBox="0 0 28 29" fill="none" xmlns="http://www.w3.org/2000/svg">
<rect x="0.352783" y="0.622314" width="27.4357" height="27.4357" rx="5.22584" fill="white"/>
<path d="M10.3636 14.7173C11.5709 14.7173 12.5455 13.7597 12.5455 12.5733C12.5455 11.387 11.5709 10.4293 10.3636 10.4293C9.15636 10.4293 8.18182 11.387 8.18182 12.5733C8.18182 13.7597 9.15636 14.7173 10.3636 14.7173ZM19.0909 10.4293H14.7273C13.9273 10.4293 13.2727 11.0725 13.2727 11.8587V15.432H7.45455V9.71467C7.45455 9.3216 7.12727 9 6.72727 9C6.32727 9 6 9.3216 6 9.71467V19.0053C6 19.3984 6.32727 19.72 6.72727 19.72C7.12727 19.72 7.45455 19.3984 7.45455 19.0053V17.576H20.5455V19.0053C20.5455 19.3984 20.8727 19.72 21.2727 19.72C21.6727 19.72 22 19.3984 22 19.0053V13.288C22 11.7086 20.6982 10.4293 19.0909 10.4293Z" fill="#453F3F"/>
</svg>
