<svg width="57" height="57" viewBox="0 0 57 57" fill="none" xmlns="http://www.w3.org/2000/svg">
<path d="M13.2849 51.7163C15.4442 51.7163 17.5551 51.076 19.3506 49.8763C21.146 48.6766 22.5454 46.9715 23.3717 44.9765C24.1981 42.9815 24.4143 40.7862 23.993 38.6684C23.5718 36.5505 22.5319 34.6051 21.005 33.0782C19.4781 31.5513 17.5327 30.5114 15.4148 30.0902C13.297 29.6689 11.1017 29.8851 9.10673 30.7115C7.11173 31.5378 5.40657 32.9372 4.20689 34.7326C3.00721 36.5281 2.36688 38.639 2.36688 40.7983C2.37015 43.693 3.52148 46.4681 5.56829 48.5149C7.6151 50.5617 10.3902 51.713 13.2849 51.7163ZM13.2849 33.3741C14.7532 33.3741 16.1886 33.8095 17.4095 34.6253C18.6304 35.4411 19.582 36.6006 20.1439 37.9572C20.7059 39.3138 20.8529 40.8066 20.5664 42.2467C20.28 43.6869 19.5729 45.0098 18.5346 46.0481C17.4963 47.0864 16.1734 47.7934 14.7332 48.0799C13.2931 48.3664 11.8003 48.2193 10.4437 47.6574C9.08713 47.0955 7.92762 46.1439 7.11184 44.923C6.29606 43.7021 5.86063 42.2667 5.86063 40.7983C5.86286 38.83 6.64576 36.9429 8.03759 35.5511C9.42942 34.1593 11.3165 33.3764 13.2849 33.3741ZM32.9372 40.7983C32.9372 42.9577 33.5775 45.0686 34.7772 46.864C35.9769 48.6595 37.682 50.0589 39.677 50.8852C41.672 51.7116 43.8673 51.9278 45.9852 51.5065C48.103 51.0853 50.0484 50.0454 51.5753 48.5185C53.1022 46.9916 54.1421 45.0462 54.5634 42.9283C54.9846 40.8105 54.7684 38.6152 53.9421 36.6202C53.1157 34.6252 51.7163 32.9201 49.9209 31.7204C48.1254 30.5207 46.0145 29.8804 43.8552 29.8804C40.9605 29.8836 38.1854 31.035 36.1386 33.0818C34.0918 35.1286 32.9405 37.9037 32.9372 40.7983ZM43.8552 33.3741C45.3235 33.3741 46.7589 33.8095 47.9798 34.6253C49.2007 35.4411 50.1523 36.6006 50.7143 37.9572C51.2762 39.3138 51.4232 40.8066 51.1367 42.2467C50.8503 43.6869 50.1432 45.0098 49.1049 46.0481C48.0666 47.0864 46.7437 47.7934 45.3036 48.0799C43.8634 48.3664 42.3706 48.2193 41.014 47.6574C39.6574 47.0955 38.4979 46.1439 37.6822 44.923C36.8664 43.7021 36.4309 42.2667 36.4309 40.7983C36.4332 38.83 37.2161 36.9429 38.6079 35.5511C39.9997 34.1593 41.8868 33.3764 43.8552 33.3741Z" fill="white"/>
<path d="M35.3295 14.6143C37.385 14.6143 39.0512 12.9481 39.0512 10.8926C39.0512 8.83717 37.385 7.1709 35.3295 7.1709C33.2741 7.1709 31.6078 8.83717 31.6078 10.8926C31.6078 12.9481 33.2741 14.6143 35.3295 14.6143Z" fill="white"/>
<path d="M21.4683 29.6944L26.8231 34.9776V44.7285H30.3169V34.6124C30.316 34.2655 30.2466 33.9222 30.1127 33.6021C29.9789 33.282 29.7832 32.9915 29.5369 32.7472L23.9388 27.224L31.1942 19.9687L37.5446 26.4705C37.7892 26.7196 38.0808 26.9177 38.4026 27.0532C38.7244 27.1887 39.0699 27.2589 39.4191 27.2597H42.545V23.766H39.7869L29.6892 13.428L29.6374 13.4786L28.7203 12.5615L16.4921 24.7896L21.4329 29.7305L21.4683 29.6944Z" fill="white"/>
</svg>
