<svg width="19" height="19" viewBox="0 0 19 19" fill="none" xmlns="http://www.w3.org/2000/svg">
<path d="M0 16.4385C0 17.4334 0.806551 18.24 1.80148 18.24H17.1985C18.1935 18.24 19 17.4334 19 16.4385V8.265H0V16.4385ZM18.24 1.71H14.25V0.19C14.25 0.0855 14.1645 0 14.06 0H12.73C12.6255 0 12.54 0.0855 12.54 0.19V1.71H6.46V0.19C6.46 0.0855 6.3745 0 6.27 0H4.94C4.8355 0 4.75 0.0855 4.75 0.19V1.71H0.76C0.339625 1.71 0 2.04962 0 2.47V6.65H19V2.47C19 2.04962 18.6604 1.71 18.24 1.71Z" fill="white"/>
</svg>
