<svg width="28" height="29" viewBox="0 0 28 29" fill="none" xmlns="http://www.w3.org/2000/svg">
<rect x="0.352783" y="0.622314" width="27.4357" height="27.4357" rx="5.22584" fill="white"/>
<path d="M21.9822 11.9472L21.559 11.2033C21.5399 11.1705 21.5088 11.1466 21.4723 11.1368C21.4359 11.127 21.397 11.1322 21.3643 11.1511L20.4591 11.6831L19.061 7.79788C18.9871 7.56605 18.842 7.36383 18.6466 7.22042C18.4511 7.07701 18.2154 6.99982 17.9735 7H10.2366C9.61705 7 9.06709 7.40254 8.87603 7.99735L7.544 11.6849L6.63692 11.1529C6.60422 11.134 6.5654 11.1288 6.52893 11.1386C6.49247 11.1484 6.46132 11.1723 6.4423 11.2051L6.01911 11.9472C5.97983 12.0155 6.00304 12.1018 6.0709 12.1413L7.14938 12.7739L6.89047 13.4927C6.86905 13.5502 6.85833 13.6113 6.85833 13.6724V19.9296C6.85833 20.2118 7.06903 20.44 7.32794 20.44H8.53499C8.75461 20.44 8.94567 20.2729 8.9921 20.0393L9.12959 19.3618H18.8717L19.0092 20.0393C19.0574 20.2729 19.2467 20.44 19.4663 20.44H20.6733C20.9322 20.44 21.1429 20.2118 21.1429 19.9296V13.6724C21.1429 13.6113 21.1322 13.5502 21.1108 13.4927L20.8519 12.7739L21.9286 12.1413C21.961 12.1225 21.9848 12.0916 21.9948 12.0553C22.0048 12.019 22.0003 11.9802 21.9822 11.9472ZM9.57241 15.6779C9.1778 15.6779 8.85818 15.3562 8.85818 14.9591C8.85818 14.5619 9.1778 14.2402 9.57241 14.2402C9.96702 14.2402 10.2866 14.5619 10.2866 14.9591C10.2866 15.3562 9.96702 15.6779 9.57241 15.6779ZM16.5004 17.0256C16.5004 17.1047 16.4362 17.1694 16.3576 17.1694H11.6437C11.5651 17.1694 11.5008 17.1047 11.5008 17.0256V15.5161C11.5008 15.4371 11.5651 15.3724 11.6437 15.3724H12.3579C12.4365 15.3724 12.5008 15.4371 12.5008 15.5161V16.1631H15.5005V15.5161C15.5005 15.4371 15.5648 15.3724 15.6434 15.3724H16.3576C16.4362 15.3724 16.5004 15.4371 16.5004 15.5161V17.0256ZM18.4289 15.6779C18.0342 15.6779 17.7146 15.3562 17.7146 14.9591C17.7146 14.5619 18.0342 14.2402 18.4289 14.2402C18.8235 14.2402 19.1431 14.5619 19.1431 14.9591C19.1431 15.3562 18.8235 15.6779 18.4289 15.6779ZM8.78676 12.0299L10.0849 8.43763L10.0938 8.41426L10.1009 8.3909C10.1206 8.3316 10.1741 8.29207 10.2366 8.29207H17.8718L19.2181 12.0299H8.78676Z" fill="#453F3F"/>
</svg>
