<svg width="54" height="54" viewBox="0 0 54 54" fill="none" xmlns="http://www.w3.org/2000/svg">
<path d="M50.5723 21.8005L49.3225 19.6173C49.2663 19.521 49.1743 19.4509 49.0666 19.4223C48.9589 19.3936 48.8442 19.4088 48.7477 19.4644L46.074 21.0253L41.9449 9.62412C41.7269 8.94382 41.2983 8.3504 40.7211 7.92954C40.1438 7.50869 39.4478 7.28218 38.7334 7.28272H15.8836C14.0537 7.28272 12.4295 8.46397 11.8652 10.2095L7.93124 21.0306L5.25234 19.4696C5.15575 19.414 5.0411 19.3989 4.9334 19.4276C4.8257 19.4562 4.73372 19.5263 4.67753 19.6226L3.42773 21.8005C3.31171 22.0009 3.38027 22.254 3.58066 22.37L6.76581 24.2263L6.00117 26.3356C5.93788 26.5044 5.90624 26.6837 5.90624 26.863V45.2251C5.90624 46.053 6.52851 46.7228 7.29316 46.7228H10.858C11.5066 46.7228 12.0709 46.2323 12.208 45.5468L12.6141 43.5587H41.3859L41.792 45.5468C41.9344 46.2323 42.4934 46.7228 43.142 46.7228H46.7068C47.4715 46.7228 48.0937 46.053 48.0937 45.2251V26.863C48.0937 26.6837 48.0621 26.5044 47.9988 26.3356L47.2342 24.2263L50.4141 22.37C50.5098 22.3147 50.58 22.2241 50.6096 22.1176C50.6392 22.0111 50.6258 21.8972 50.5723 21.8005ZM13.9219 32.7481C12.7564 32.7481 11.8125 31.8042 11.8125 30.6388C11.8125 29.4733 12.7564 28.5294 13.9219 28.5294C15.0873 28.5294 16.0312 29.4733 16.0312 30.6388C16.0312 31.8042 15.0873 32.7481 13.9219 32.7481ZM34.3828 36.7032C34.3828 36.9353 34.193 37.1251 33.9609 37.1251H20.0391C19.807 37.1251 19.6172 36.9353 19.6172 36.7032V32.2735C19.6172 32.0415 19.807 31.8517 20.0391 31.8517H22.1484C22.3805 31.8517 22.5703 32.0415 22.5703 32.2735V34.172H31.4297V32.2735C31.4297 32.0415 31.6195 31.8517 31.8516 31.8517H33.9609C34.193 31.8517 34.3828 32.0415 34.3828 32.2735V36.7032ZM40.0781 32.7481C38.9127 32.7481 37.9687 31.8042 37.9687 30.6388C37.9687 29.4733 38.9127 28.5294 40.0781 28.5294C41.2436 28.5294 42.1875 29.4733 42.1875 30.6388C42.1875 31.8042 41.2436 32.7481 40.0781 32.7481ZM11.6016 22.0431L15.4353 11.5015L15.4617 11.4329L15.4828 11.3644C15.5408 11.1903 15.699 11.0743 15.8836 11.0743H38.4328L42.409 22.0431H11.6016Z" fill="white"/>
</svg>
