<svg width="28" height="29" viewBox="0 0 28 29" fill="none" xmlns="http://www.w3.org/2000/svg">
<rect x="0.352783" y="0.622314" width="27.4357" height="27.4357" rx="5.22584" fill="white"/>
<path d="M7.15974 14.0407L6 15.2005L10.0591 16.9401L11.7995 21L12.9593 19.8403L12.3794 16.9401L15.0967 14.2228L18.0575 20.5415L19.1558 19.4433L18.1797 11.1406L20.4992 8.82027C20.6559 8.66895 20.7809 8.48794 20.8668 8.28781C20.9528 8.08768 20.998 7.87243 20.9999 7.65462C21.0018 7.43682 20.9603 7.22081 20.8778 7.01922C20.7954 6.81762 20.6736 6.63447 20.5195 6.48045C20.3655 6.32643 20.1824 6.20463 19.9808 6.12215C19.7792 6.03967 19.5632 5.99817 19.3454 6.00006C19.1276 6.00195 18.9123 6.04721 18.7122 6.13318C18.5121 6.21915 18.3311 6.34411 18.1797 6.50079L15.7987 8.88178L7.49602 7.90494L6.45848 8.94329L12.728 11.9534L10.0599 14.6214L7.15974 14.0407Z" fill="#453F3F"/>
</svg>
