<svg width="196" height="77" viewBox="0 0 196 77" fill="none" xmlns="http://www.w3.org/2000/svg">
<path d="M76.2245 59.1614L90.8646 1.84267C91.1525 0.614222 90.5637 0 89.0984 0H87.2537C85.9453 0 85.1342 0.588085 84.8202 1.76425L70.1408 58.3381C69.9576 59.0961 70.0623 59.7234 70.4548 60.22C70.8211 60.6904 71.4883 60.9257 72.4565 60.9257H73.8302C75.1124 60.9257 75.9105 60.3376 76.2245 59.1614Z" fill="white"/>
<path fill-rule="evenodd" clip-rule="evenodd" d="M54.6328 29.0122L56.4383 21.916C56.7261 20.7398 56.1897 20.1517 54.8291 20.1517H52.5133C51.3358 20.1517 50.6032 20.7137 50.3153 21.8376L42.0274 54.1096L44.8072 57.8431C44.9971 58.0982 44.8554 58.463 44.5423 58.5251L40.6976 59.2878L36.8134 74.4124C36.6564 75.1443 36.748 75.7585 37.0882 76.2551C37.4283 76.7517 38.0302 77 38.8936 77H40.3459C41.6542 77 42.4654 76.4119 42.7794 75.2357L46.7436 59.8279C48.2874 60.7688 49.9621 61.2393 51.7676 61.2393C54.8814 61.2393 57.4588 60.3114 59.4998 58.4557C61.5408 56.5738 63.621 52.8232 65.7405 47.2037C67.86 41.558 69.1291 37.0494 69.5477 33.6777C69.9926 30.306 70.0449 28.0713 69.7047 26.9735C69.3645 25.8758 68.7627 24.8172 67.8992 23.7979C67.0619 22.7524 66.1853 21.9291 65.2695 21.3279C64.3537 20.7006 63.6864 20.387 63.2678 20.387H63.1108C62.1949 20.387 61.0043 21.0665 59.539 22.4257C58.0999 23.7587 56.8177 25.353 55.6926 27.2088L54.6328 29.0122ZM54.1618 55.9857C52.618 57.0051 50.5377 56.7699 47.9211 55.28L48.1566 54.5743C49.9097 48.1707 51.4012 43.3876 52.6311 40.2251C53.8871 37.0625 55.1431 34.5272 56.399 32.6191C57.6812 30.7111 58.911 29.2867 60.0885 28.3457C61.266 27.4048 62.208 27.1303 62.9145 27.5224C63.621 27.9145 64.0135 28.594 64.092 29.5611C64.1705 30.502 64.0004 32.0964 63.5817 34.3442C62.6659 39.4148 61.0044 44.5507 58.597 49.752C57.184 52.8624 55.7056 54.9403 54.1618 55.9857Z" fill="white"/>
<path fill-rule="evenodd" clip-rule="evenodd" d="M85.725 49.2816C85.9867 42.0677 87.4781 35.8602 90.1995 30.6589C91.377 28.3588 92.3451 26.6991 93.1039 25.6797C93.8628 24.6342 94.7786 23.6018 95.8514 22.5825C98.0756 20.4654 100.758 19.433 103.898 19.4852C106.593 19.6159 108.686 20.962 110.178 23.5234C111.277 25.2746 111.748 28.202 111.591 32.3055C111.46 36.3829 110.766 40.3819 109.51 44.3024C108.281 48.1969 106.894 51.451 105.35 54.0647C102.262 59.2137 98.3242 61.7098 93.5357 61.553C91.7825 61.4745 90.1995 60.7296 88.7865 59.3182C87.8445 58.4296 87.0726 57.1227 86.4707 55.3977C85.8951 53.6465 85.6465 51.6078 85.725 49.2816ZM99.3839 52.4964C103.073 46.694 105.01 40.2904 105.193 33.2856C105.271 30.1492 105.101 28.0451 104.683 26.9735C104.29 25.9019 103.492 25.353 102.288 25.3269C101.085 25.2746 99.9857 25.8366 98.9914 27.0127C98.0233 28.1628 97.0813 29.6918 96.1654 31.5998C93.7319 36.6181 92.4236 42.2507 92.2404 48.4975C92.1358 53.3328 92.9731 55.8159 94.7524 55.9465C96.3224 55.9988 97.8663 54.8488 99.3839 52.4964Z" fill="white"/>
<path d="M134.223 20.5438C132.313 21.8245 129.618 25.2877 126.138 30.9333L128.493 21.8376C128.65 21.2103 128.61 20.779 128.375 20.5438C128.139 20.2824 127.668 20.1517 126.962 20.1517H124.489C123.285 20.1517 122.54 20.6875 122.252 21.7592L112.439 59.083C112.152 60.3114 112.74 60.9257 114.206 60.9257H116.521C117.83 60.9257 118.641 60.3376 118.955 59.1614L125.156 35.3243L125.824 36.5397C126.504 37.8204 127.067 38.6307 127.511 38.9705C127.956 39.2841 128.61 39.3756 129.474 39.2449L132.535 38.696C132.98 38.6176 133.255 38.4216 133.36 38.1079C133.49 37.7943 133.399 37.5068 133.085 37.2454C131.75 36.017 131.083 34.697 131.083 33.2856C131.083 32.6061 131.973 31.1424 133.752 28.8946C135.531 26.6468 136.957 25.0524 138.03 24.1115C139.103 23.1444 139.757 22.3342 139.993 21.6808C140.464 20.4784 139.927 19.8773 138.384 19.8773H137.599C135.976 19.8773 134.851 20.0995 134.223 20.5438Z" fill="white"/>
<path fill-rule="evenodd" clip-rule="evenodd" d="M141.105 49.9089C140.712 52.1567 140.738 53.738 141.183 54.6528C141.628 55.5414 142.335 56.1034 143.303 56.3386C145.291 55.6068 147.725 53.6073 150.603 50.3401C151.1 49.8435 151.637 49.7912 152.212 50.1833L153.743 51.1242C154.057 51.3072 154.28 51.5947 154.41 51.9868C154.567 52.3527 154.58 52.6533 154.45 52.8885C153.455 54.8226 151.571 56.8875 148.798 59.083C146.05 61.2524 143.839 62.1672 142.164 61.8274C138.37 60.9126 136.146 58.9262 135.492 55.8681C134.995 53.4374 135.086 50.1833 135.767 46.1059C136.473 42.0285 137.769 37.8204 139.652 33.4817C142.4 27.1303 145.579 23.1183 149.19 21.4455C152.042 20.1125 154.646 19.9688 157.001 21.0143C159.382 22.0597 160.573 24.6604 160.573 28.8162C160.573 31.2208 159.984 33.5862 158.806 35.9124C156.687 40.0682 152.945 43.7144 147.581 46.8508C145.488 48.0793 143.329 49.0986 141.105 49.9089ZM142.125 44.6161C147.568 42.2638 151.27 39.075 153.233 35.0499C154.227 32.9851 154.724 30.9594 154.724 28.973C154.724 26.9866 154.149 25.9934 152.997 25.9934C150.485 25.9934 148.314 27.9537 146.482 31.8742C144.676 35.7948 143.224 40.0421 142.125 44.6161Z" fill="white"/>
<path fill-rule="evenodd" clip-rule="evenodd" d="M179.843 54.7704L195.111 1.84267C195.478 0.614222 194.889 0 193.345 0H191.265C189.957 0 189.145 0.588085 188.831 1.76425L183.454 21.72C181.884 20.779 180.196 20.3086 178.391 20.3086C175.382 20.3086 172.804 21.2756 170.659 23.2098C168.513 25.1439 166.21 29.535 163.751 36.3829C161.291 43.2047 160.114 48.6804 160.218 52.8101C160.297 54.8488 161.16 56.7568 162.809 58.5341C164.484 60.2853 165.844 61.1609 166.891 61.1609H167.048C167.964 61.1609 169.036 60.5859 170.266 59.4359C171.522 58.2858 172.569 57.1227 173.406 55.9465L174.937 60.3768C175.016 60.6643 175.186 60.8995 175.447 61.0825C175.735 61.2654 176.049 61.3177 176.389 61.2393C178.901 60.6382 181.086 59.6449 182.944 58.2597C184.802 56.8483 186.817 54.8488 188.988 52.2612C189.564 51.4771 189.433 50.8106 188.596 50.2617L186.673 48.9679C185.914 48.4975 185.247 48.6804 184.671 49.5168C182.996 51.8691 181.387 53.6203 179.843 54.7704ZM175.761 25.7581C177.488 24.6081 179.647 24.7649 182.237 26.2286C180.04 34.2789 177.933 40.4995 175.918 44.8905C173.93 49.2554 171.679 52.2481 169.167 53.8686C168.199 54.4959 167.427 54.4306 166.852 53.6726C165.753 52.2612 166.106 48.3276 167.911 41.8717C170.449 32.9589 173.066 27.5877 175.761 25.7581Z" fill="white"/>
<path d="M3.32912 65.6498C3.98301 66.5324 5.30599 66.5292 5.95559 65.6434L18.3251 48.7766C18.6499 48.3338 19.3114 48.3322 19.6384 48.7735L25.0638 56.0967C25.1232 56.1769 25.151 56.2761 25.1421 56.3754L24.3898 64.7404C24.3809 64.8398 24.4088 64.9389 24.4682 65.0191L27.4375 69.0272C27.6153 69.2671 27.9826 69.2408 28.1242 68.9779L32.8856 60.1413C32.9432 60.0344 33.0456 59.9587 33.1648 59.9349L43.0143 57.9713C43.3074 57.9129 43.44 57.5697 43.2622 57.3297L40.2929 53.3217C40.2335 53.2415 40.1467 53.1859 40.049 53.1654L31.8205 51.4389C31.7228 51.4184 31.636 51.3628 31.5766 51.2826L25.8331 43.53C25.6287 43.254 25.6194 42.8797 25.8099 42.5939L39.5657 21.9689C39.9468 21.3975 39.9283 20.6487 39.5194 20.0968L37.8599 17.8567C37.275 17.0673 36.129 16.9704 35.4197 17.6506L19.9452 32.6134L15.3566 37.3052C15.2023 37.463 14.9501 37.4688 14.7888 37.3183C14.6214 37.1622 14.6162 36.8988 14.7774 36.7362L18.0604 33.4241C18.1639 33.3197 18.1409 33.147 18.0534 33.029L9.71648 21.7756C9.71648 21.7756 4.55082 14.803 1.29326 17.2109C-1.96198 19.6171 3.20368 26.5898 3.20368 26.5898L11.808 38.2039C11.9834 38.4408 12.0172 38.7537 11.8962 39.0224L1.59455 61.9097C1.35267 62.4471 1.42016 63.073 1.77103 63.5466L3.32912 65.6498Z" fill="white"/>
</svg>
