<svg width="28" height="29" viewBox="0 0 28 29" fill="none" xmlns="http://www.w3.org/2000/svg">
<rect x="0.352783" y="0.622314" width="27.4357" height="27.4357" rx="5.22584" fill="white"/>
<path d="M11.2797 15.6152L13.6 13.2693L7.84419 7.45859C7.22994 8.08137 6.88501 8.92496 6.88501 9.80444C6.88501 10.6839 7.22994 11.5275 7.84419 12.1503L11.2797 15.6152ZM16.8387 14.1148C18.0932 14.7034 19.856 14.2889 21.1597 12.9709C22.7258 11.3877 23.0291 9.11643 21.8239 7.89792C20.6268 6.6877 18.3802 6.98611 16.8059 8.56935C15.5023 9.88733 15.0923 11.6695 15.6744 12.9378L7.672 21.028L8.82809 22.1968L14.4774 16.5021L20.1184 22.2051L21.2745 21.0363L15.6334 15.3333L16.8387 14.1148Z" fill="#453F3F"/>
</svg>
