<svg width="25" height="23" viewBox="0 0 25 23" fill="none" xmlns="http://www.w3.org/2000/svg">
<path d="M24.2028 4.45479L16.8072 0.757014C16.636 0.671323 16.4471 0.626709 16.2556 0.626709C16.0641 0.626709 15.8753 0.671323 15.704 0.757014L8.86069 4.17992L2.01611 0.757014C1.82814 0.663087 1.61928 0.618772 1.40937 0.628279C1.19946 0.637786 0.995461 0.700799 0.816755 0.811332C0.638049 0.921865 0.490567 1.07625 0.388318 1.25982C0.286068 1.44339 0.232446 1.65006 0.232544 1.86018V17.8839C0.232544 18.351 0.496319 18.7775 0.914168 18.9871L8.30972 22.6848C8.48097 22.7705 8.66982 22.8151 8.86131 22.8151C9.05279 22.8151 9.24165 22.7705 9.41289 22.6848L16.2562 19.2619L23.1008 22.6836C23.2883 22.7784 23.497 22.8234 23.7068 22.8141C23.9167 22.8048 24.1206 22.7416 24.2989 22.6306C24.6625 22.405 24.8844 22.0094 24.8844 21.5817V5.55796C24.8844 5.09081 24.6206 4.66433 24.2028 4.45479ZM10.0933 6.3197L15.0237 3.85452V17.1221L10.0933 19.5873V6.3197ZM2.69773 3.85452L7.6281 6.3197V19.5873L2.69773 17.1221V3.85452ZM22.4192 19.5873L17.4888 17.1221V3.85452L22.4192 6.3197V19.5873Z" fill="#453F3F"/>
</svg>
