<svg width="28" height="29" viewBox="0 0 28 29" fill="none" xmlns="http://www.w3.org/2000/svg">
<rect x="0.352783" y="0.622314" width="27.4357" height="27.4357" rx="5.22584" fill="white"/>
<path d="M10.5221 17.8929C10.8679 17.2189 11.19 16.434 11.4886 15.5143H11.1429V13.9286H11.9286C12.4079 11.8671 12.7143 9.2745 12.7143 6H14.2857C14.2857 9.2745 14.6 11.8671 15.0714 13.9286H15.8571V15.5143H15.5114C15.81 16.434 16.1321 17.2189 16.4779 17.8929H17.4286V19.4786L19 21.8571H17.0986C16.4936 20.4617 15.1107 19.4786 13.5 19.4786C11.8893 19.4786 10.5064 20.4617 9.90143 21.8571H8L9.57143 19.4786L9.54786 17.8929H10.5221ZM13.9636 15.5143H13.0364C12.7988 16.3281 12.5021 17.1231 12.1486 17.8929H14.8514C14.5371 17.2031 14.2307 16.4102 13.9636 15.5143Z" fill="#453F3F"/>
</svg>
