<svg width="117" height="47" viewBox="0 0 117 47" fill="none" xmlns="http://www.w3.org/2000/svg">
<path d="M45.6046 36.0122L54.3887 1.62098C54.5614 0.883914 54.2082 0.515381 53.329 0.515381H52.2221C51.4371 0.515381 50.9504 0.868232 50.762 1.57393L41.9544 35.5182C41.8445 35.973 41.9073 36.3494 42.1428 36.6474C42.3626 36.9296 42.7629 37.0708 43.3438 37.0708H44.1681C44.9374 37.0708 45.4162 36.7179 45.6046 36.0122Z" fill="#0D3B66"/>
<path fill-rule="evenodd" clip-rule="evenodd" d="M32.6496 17.9227L33.7329 13.665C33.9056 12.9593 33.5837 12.6064 32.7674 12.6064H31.3779C30.6714 12.6064 30.2318 12.9436 30.0591 13.6179L25.0864 32.9811L26.7542 35.2212C26.8682 35.3743 26.7832 35.5932 26.5953 35.6304L24.2885 36.0881L21.958 45.1628C21.8638 45.6019 21.9187 45.9705 22.1228 46.2684C22.3269 46.5664 22.688 46.7154 23.2061 46.7154H24.0775C24.8624 46.7154 25.3491 46.3625 25.5375 45.6568L27.9161 36.4121C28.8424 36.9767 29.8472 37.259 30.9305 37.259C32.7987 37.259 34.3452 36.7022 35.5698 35.5888C36.7944 34.4597 38.0425 32.2093 39.3142 28.8376C40.5859 25.4502 41.3474 22.745 41.5986 20.722C41.8654 18.699 41.8968 17.3582 41.6927 16.6995C41.4886 16.0408 41.1276 15.4057 40.6095 14.7941C40.1071 14.1668 39.5811 13.6728 39.0316 13.3121C38.4821 12.9357 38.0818 12.7476 37.8306 12.7476H37.7364C37.1869 12.7476 36.4725 13.1553 35.5933 13.9708C34.7298 14.7706 33.9605 15.7272 33.2854 16.8406L32.6496 17.9227ZM32.367 34.1068C31.4407 34.7184 30.1926 34.5773 28.6226 33.6834L28.7639 33.26C29.8158 29.4178 30.7107 26.548 31.4486 24.6504C32.2022 22.7529 32.9558 21.2317 33.7093 20.0869C34.4786 18.9421 35.2165 18.0874 35.923 17.5228C36.6295 16.9583 37.1947 16.7936 37.6186 17.0288C38.0425 17.2641 38.278 17.6718 38.3251 18.252C38.3722 18.8166 38.2702 19.7732 38.019 21.1219C37.4695 24.1643 36.4725 27.2458 35.0281 30.3666C34.1803 32.2328 33.2933 33.4795 32.367 34.1068Z" fill="#0D3B66"/>
<path fill-rule="evenodd" clip-rule="evenodd" d="M51.3049 30.0843C51.4619 25.756 52.3568 22.0315 53.9896 18.9107C54.6961 17.5307 55.277 16.5348 55.7323 15.9232C56.1876 15.2959 56.7371 14.6765 57.3808 14.0649C58.7153 12.7946 60.3245 12.1752 62.2085 12.2065C63.8256 12.2849 65.0816 13.0926 65.9765 14.6294C66.6359 15.6801 66.9185 17.4366 66.8243 19.8987C66.7458 22.3451 66.3297 24.7445 65.5761 27.0968C64.8382 29.4335 64.0061 31.386 63.0798 32.9542C61.2273 36.0436 58.8644 37.5412 55.9913 37.4472C54.9394 37.4001 53.9896 36.9532 53.1418 36.1063C52.5766 35.5731 52.1135 34.789 51.7524 33.754C51.407 32.7033 51.2578 31.48 51.3049 30.0843ZM59.5003 32.0132C61.714 28.5318 62.8757 24.6896 62.9856 20.4868C63.0327 18.6049 62.9307 17.3425 62.6795 16.6995C62.444 16.0565 61.9652 15.7272 61.243 15.7115C60.5208 15.6801 59.8614 16.0173 59.2648 16.723C58.6839 17.413 58.1187 18.3305 57.5692 19.4753C56.1091 22.4863 55.3241 25.8658 55.2142 29.6139C55.1514 32.5151 55.6538 34.0049 56.7214 34.0833C57.6634 34.1147 58.5897 33.4246 59.5003 32.0132Z" fill="#0D3B66"/>
<path d="M80.4038 12.8417C79.2577 13.6101 77.6406 15.688 75.5525 19.0754L76.9655 13.6179C77.0597 13.2416 77.0361 12.9828 76.8948 12.8417C76.7535 12.6848 76.4709 12.6064 76.047 12.6064H74.5634C73.8412 12.6064 73.3937 12.9279 73.221 13.5709L67.3336 35.9652C67.1609 36.7022 67.5141 37.0708 68.3933 37.0708H69.7828C70.5678 37.0708 71.0545 36.7179 71.2429 36.0122L74.9637 21.71L75.3641 22.4392C75.7723 23.2076 76.1098 23.6938 76.3767 23.8977C76.6436 24.0858 77.0361 24.1407 77.5542 24.0623L79.3911 23.733C79.658 23.686 79.8229 23.5683 79.8857 23.3801C79.9642 23.192 79.9092 23.0195 79.7208 22.8626C78.9201 22.1256 78.5198 21.3336 78.5198 20.4868C78.5198 20.079 79.0536 19.2008 80.1212 17.8521C81.1888 16.5035 82.0444 15.5468 82.6881 14.9823C83.3318 14.402 83.7243 13.9159 83.8656 13.5238C84.1482 12.8024 83.8263 12.4418 82.9 12.4418H82.429C81.4556 12.4418 80.7806 12.5751 80.4038 12.8417Z" fill="#0D3B66"/>
<path fill-rule="evenodd" clip-rule="evenodd" d="M84.5328 30.4607C84.2973 31.8094 84.313 32.7582 84.5798 33.307C84.8467 33.8402 85.2707 34.1774 85.8515 34.3185C87.0447 33.8794 88.5048 32.6797 90.2318 30.7195C90.5301 30.4215 90.852 30.3901 91.1974 30.6254L92.1158 31.1899C92.3042 31.2997 92.4377 31.4722 92.5162 31.7074C92.6104 31.927 92.6182 32.1073 92.5397 32.2485C91.9431 33.409 90.8127 34.6479 89.1485 35.9652C87.5 37.2668 86.1734 37.8157 85.1686 37.6118C82.8921 37.0629 81.5576 35.8711 81.1651 34.0363C80.8668 32.5778 80.9218 30.6254 81.33 28.1789C81.7539 25.7325 82.531 23.2076 83.6614 20.6044C85.3099 16.7936 87.2174 14.3864 89.384 13.3827C91.0953 12.5829 92.6575 12.4966 94.0704 13.1239C95.4991 13.7512 96.2135 15.3116 96.2135 17.8051C96.2135 19.2479 95.8602 20.6671 95.1537 22.0628C93.8821 24.5563 91.637 26.744 88.4185 28.6259C87.1625 29.3629 85.8672 29.9745 84.5328 30.4607ZM85.1451 27.285C88.4106 25.8736 90.6322 23.9604 91.8097 21.5453C92.4063 20.3064 92.7046 19.091 92.7046 17.8992C92.7046 16.7073 92.3592 16.1114 91.6684 16.1114C90.1612 16.1114 88.8581 17.2876 87.7591 19.6399C86.6758 21.9923 85.8045 24.5406 85.1451 27.285Z" fill="#0D3B66"/>
<path fill-rule="evenodd" clip-rule="evenodd" d="M107.776 33.3776L116.937 1.62098C117.157 0.883914 116.803 0.515381 115.877 0.515381H114.629C113.844 0.515381 113.357 0.868232 113.169 1.57393L109.942 13.5474C109 12.9828 107.988 12.7005 106.905 12.7005C105.099 12.7005 103.553 13.2808 102.265 14.4412C100.978 15.6017 99.5962 18.2364 98.1204 22.3451C96.6446 26.4382 95.9381 29.7236 96.0009 32.2014C96.048 33.4246 96.5661 34.5695 97.5552 35.6359C98.56 36.6866 99.3764 37.2119 100.004 37.2119H100.099C100.648 37.2119 101.292 36.8669 102.03 36.1769C102.783 35.4869 103.411 34.789 103.914 34.0833L104.832 36.7414C104.879 36.914 104.981 37.0551 105.138 37.1649C105.311 37.2746 105.499 37.306 105.703 37.259C107.211 36.8983 108.522 36.3023 109.636 35.4712C110.751 34.6243 111.96 33.4246 113.263 31.8721C113.608 31.4016 113.53 31.0017 113.027 30.6724L111.874 29.8961C111.418 29.6139 111.018 29.7236 110.673 30.2255C109.668 31.6369 108.702 32.6876 107.776 33.3776ZM105.327 15.9703C106.363 15.2802 107.658 15.3743 109.212 16.2526C107.894 21.0827 106.63 24.8151 105.421 27.4497C104.228 30.0686 102.877 31.8643 101.37 32.8366C100.789 33.2129 100.326 33.1737 99.9809 32.7189C99.3215 31.8721 99.5334 29.5119 100.617 25.6384C102.14 20.2907 103.71 17.068 105.327 15.9703Z" fill="#0D3B66"/>
<path d="M1.8674 39.9052C2.25973 40.4348 3.05352 40.4329 3.44327 39.9014L10.865 29.7814C11.0599 29.5156 11.4568 29.5147 11.6529 29.7795L14.9082 34.1734C14.9438 34.2215 14.9605 34.281 14.9552 34.3406L14.5038 39.3596C14.4985 39.4192 14.5152 39.4787 14.5508 39.5268L16.3324 41.9317C16.4391 42.0757 16.6595 42.0599 16.7445 41.9021L19.6013 36.6001C19.6358 36.536 19.6973 36.4906 19.7688 36.4763L25.6785 35.2982C25.8544 35.2631 25.9339 35.0572 25.8273 34.9132L24.0457 32.5084C24.01 32.4603 23.958 32.4269 23.8993 32.4146L18.9622 31.3787C18.9036 31.3664 18.8515 31.333 18.8159 31.2849L15.3698 26.6334C15.2471 26.4678 15.2416 26.2432 15.3559 26.0717L23.6093 13.6967C23.838 13.3539 23.8269 12.9046 23.5816 12.5735L22.5858 11.2294C22.2349 10.7557 21.5473 10.6976 21.1217 11.1057L11.837 20.0834L9.08386 22.8985C8.9913 22.9932 8.84001 22.9966 8.7432 22.9063C8.64277 22.8127 8.63967 22.6546 8.73634 22.5571L10.7061 20.5698C10.7682 20.5072 10.7545 20.4036 10.702 20.3328L5.69981 13.5808C5.69981 13.5808 2.60041 9.39717 0.645877 10.8419C-1.30726 12.2857 1.79213 16.4692 1.79213 16.4692L6.95471 23.4377C7.05998 23.5798 7.08022 23.7676 7.00766 23.9288L0.826649 37.6612C0.681523 37.9836 0.722015 38.3592 0.932541 38.6434L1.8674 39.9052Z" fill="#0D3B66"/>
</svg>
